HIERARCHY
ROOT Hips
{
	OFFSET 0.000000 0.000000 0.000000
	CHANNELS 6 Xposition Yposition Zposition Zrotation Yrotation Xrotation 
	JOINT LHipJoint
	{
		OFFSET 0.000000 0.000000 0.000000
		CHANNELS 3 Zrotation Yrotation Xrotation
		JOINT LeftUpLeg
		{
			OFFSET 1.363060 -1.794630 0.839290
			CHANNELS 3 Zrotation Yrotation Xrotation
			JOINT LeftLeg
			{
				OFFSET 2.448110 -6.726130 0.000000
				CHANNELS 3 Zrotation Yrotation Xrotation
				JOINT LeftFoot
				{
					OFFSET 2.562200 -7.039590 0.000000
					CHANNELS 3 Zrotation Yrotation Xrotation
					JOINT LeftToeBase
					{
						OFFSET 0.157640 -0.433110 2.322550
						CHANNELS 3 Zrotation Yrotation Xrotation
						End Site
						{
							OFFSET 0.000000 0.000000 0.000000
						}
					}
				}
			}
		}
	}
	JOINT RHipJoint
	{
		OFFSET 0.000000 0.000000 0.000000
		CHANNELS 3 Zrotation Yrotation Xrotation
		JOINT RightUpLeg
		{
			OFFSET -1.305520 -1.794630 0.839290
			CHANNELS 3 Zrotation Yrotation Xrotation
			JOINT RightLeg
			{
				OFFSET -2.542530 -6.985550 0.000000
				CHANNELS 3 Zrotation Yrotation Xrotation
				JOINT RightFoot
				{
					OFFSET -2.568260 -7.056230 0.000000
					CHANNELS 3 Zrotation Yrotation Xrotation
					JOINT RightToeBase
					{
						OFFSET -0.164730 -0.452590 2.363150
						CHANNELS 3 Zrotation Yrotation Xrotation
						End Site
						{
							OFFSET 0.000000 0.000000 0.000000
						}
					}
				}
			}
		}
	}
}
MOTION
Frames: 25
Frame Time: 0.008333
3.192022 16.946114 1.639624 -41.355530 -65.078254 22.813120 -13.186281 -0.359225 -2.683348 3.742590 -0.998761 14.141373 0.002930 2.194300 22.313773 2.612030 13.926895 -14.268984 -1.508200 -0.000000 -35.560300 6.563142 7.267295 1.020104 -0.535680 -26.059254 -68.437154 1.472354 1.043915 2.774196 0.112071 -20.312307 -7.730203 -6.006100 0.000000 -56.660600
3.184112 16.943218 1.632617 -41.317833 -64.460826 22.372951 -13.195342 -0.248734 -2.446925 4.272431 -0.979580 14.122955 0.012793 2.166694 22.335396 2.498415 13.273380 -14.341262 -1.477100 0.000000 -36.123900 6.735497 7.101817 0.850537 -1.534865 -25.870090 -64.712595 1.340462 1.067317 1.738876 -0.234205 -21.597963 -6.053010 -6.423300 0.000000 -57.105500
3.178084 16.936635 1.626936 -41.509350 -63.969438 22.107620 -13.216278 -0.129763 -2.228344 4.879665 -0.810416 14.112029 0.022129 2.141301 22.402156 2.377318 12.573673 -14.443455 -1.446300 0.000000 -36.728300 6.886811 6.872240 0.596728 -1.800658 -25.717661 -61.060232 1.310101 1.124695 0.177244 -0.817328 -22.314137 -3.583411 -6.684000 -0.000000 -57.601500
3.173958 16.926297 1.622262 -41.868852 -63.599348 21.921953 -13.243524 -0.004496 -2.034368 5.511117 -0.547119 14.205182 0.030566 2.121578 22.465389 2.259751 11.885473 -14.554550 -1.413900 0.000000 -37.335300 7.013437 6.588438 0.242822 -1.323444 -25.797607 -57.587232 1.385243 1.194468 -1.771305 -1.547283 -22.252949 -0.511551 -6.698300 -0.000000 -58.042000
3.171203 16.912622 1.617827 -42.310081 -63.347382 21.731868 -13.269852 0.122022 -1.873849 6.104652 -0.242815 14.460229 0.036819 2.109501 22.486084 2.155241 11.261553 -14.658558 -1.380501 -0.000000 -37.903401 7.127042 6.266084 -0.191069 -0.326687 -26.161094 -54.324658 1.535815 1.250855 -3.875192 -2.264194 -21.469425 2.817568 -6.469200 0.000000 -58.306000
3.169220 16.896520 1.612808 -42.758732 -63.213068 21.502963 -13.290130 0.241647 -1.756181 6.614383 0.075016 14.873255 0.040020 2.104628 22.446055 2.068842 10.733436 -14.745302 -1.348399 0.000000 -38.404300 7.249273 5.924250 -0.648175 0.811779 -26.676213 -51.258823 1.708973 1.274463 -5.840929 -2.829134 -20.296340 5.985129 -6.107900 -0.000001 -58.302700
3.167541 16.879414 1.606935 -43.166173 -63.163087 21.266563 -13.296720 0.329772 -1.699051 7.026097 0.396112 15.383848 0.043303 2.100571 22.349540 2.001079 10.305280 -14.811409 -1.319201 -0.000000 -38.834600 7.359279 5.628211 -1.014685 1.675093 -27.088173 -49.664940 1.870613 1.096666 -4.744693 -2.757301 -19.100915 7.010986 -5.752900 -0.000000 -58.071400
3.166100 16.862721 1.600357 -43.528023 -63.213865 21.033535 -13.291723 0.402877 -1.675826 7.336349 0.731533 15.933153 0.045655 2.096320 22.204946 1.949875 9.975246 -14.853656 -1.293999 0.000000 -39.201099 7.489552 5.347771 -1.311130 2.225648 -27.294636 -48.249531 1.979823 0.901790 -3.133405 -2.570251 -18.221401 7.359832 -5.487299 0.000000 -57.755700
3.164632 16.847834 1.593401 -43.831346 -63.355560 20.815325 -13.277128 0.469311 -1.669643 7.551220 1.079205 16.470274 0.046656 2.089996 22.019665 1.912416 9.732382 -14.869994 -1.272600 0.000000 -39.521300 7.652773 5.069872 -1.537590 2.489394 -27.262108 -46.549198 2.033908 0.759904 -1.996329 -2.454495 -17.758118 7.595641 -5.331800 0.000000 -57.509800
3.163071 16.835668 1.586336 -44.067214 -63.555271 20.612787 -13.253660 0.531802 -1.669187 7.686016 1.426408 16.961929 0.046750 2.079805 21.800269 1.885019 9.556942 -14.859470 -1.253500 0.000000 -39.821100 7.841027 4.795548 -1.693877 2.529293 -27.013486 -44.637873 2.045270 0.666495 -1.258099 -2.404308 -17.684621 7.690438 -5.273200 -0.000000 -57.429099
3.161088 16.826756 1.579184 -44.225338 -63.775308 20.413663 -13.222225 0.593447 -1.664394 7.760790 1.758123 17.390512 0.046060 2.064948 21.552882 1.863386 9.423613 -14.822836 -1.234599 -0.000000 -40.132900 8.044089 4.524038 -1.791287 2.425397 -26.610264 -42.597809 2.027146 0.611322 -0.818232 -2.407338 -17.929208 7.643578 -5.287100 -0.000001 -57.530700
3.158296 16.821196 1.571817 -44.294623 -63.981718 20.196410 -13.184314 0.657927 -1.646847 7.796316 2.060660 17.749967 0.044117 2.045578 21.284080 1.842945 9.304273 -14.762562 -1.213700 -0.000001 -40.488400 8.252834 4.254243 -1.846108 2.248618 -26.127333 -40.498792 1.990761 0.582741 -0.577701 -2.449605 -18.405585 7.481716 -5.349500 0.000000 -57.761800
3.154444 16.818672 1.563922 -44.263841 -64.148297 19.935319 -13.140927 0.728042 -1.611021 7.808661 2.324858 18.039819 0.040008 2.022251 21.001914 1.819686 9.173432 -14.683765 -1.189100 0.000000 -40.911500 8.460614 3.985579 -1.875908 2.052083 -25.640731 -38.398375 1.944930 0.569251 -0.446260 -2.516711 -19.021753 7.249837 -5.438900 0.000000 -58.033100
3.149285 16.818603 1.555038 -44.121035 -64.260747 19.604543 -13.092045 0.805889 -1.554327 7.805080 2.545916 18.264754 0.032323 1.995854 20.715555 1.790830 9.012352 -14.593511 -1.160300 0.000000 -41.413500 8.663654 3.718353 -1.896483 1.868187 -25.215999 -36.341291 1.896100 0.560862 -0.347737 -2.594838 -19.689467 6.998474 -5.539100 0.000000 -58.242800
3.142470 16.820301 1.544774 -43.853993 -64.315114 19.184891 -13.036368 0.892447 -1.476537 7.785525 2.723835 18.429274 0.019579 1.966998 20.435009 1.755073 8.810730 -14.500557 -1.127900 0.000000 -41.990400 8.860016 3.453488 -1.920708 1.715865 -24.906856 -34.368156 1.849375 0.549288 -0.217382 -2.670850 -20.324003 6.772287 -5.636400 0.000001 -58.312900
3.133960 16.822945 1.532864 -43.460009 -64.318175 18.667822 -12.972124 0.987296 -1.379845 7.743159 2.863410 18.538471 0.000530 1.936272 20.170684 1.712757 8.568243 -14.414404 -1.093600 -0.000001 -42.622600 9.049202 3.192546 -1.956956 1.598966 -24.745523 -32.509650 1.807789 0.528625 -0.007135 -2.733993 -20.856735 6.603118 -5.720500 -0.000000 -58.198500
3.123983 16.825707 1.519275 -42.948527 -64.284319 18.057830 -12.898176 1.088865 -1.268105 7.669364 2.972425 18.597399 -0.025477 1.904328 19.932909 1.665564 8.293065 -14.344032 -1.059700 0.000000 -43.280200 9.230879 2.937319 -2.010053 1.515579 -24.746090 -30.787944 1.773250 0.495402 0.313732 -2.776073 -21.235006 6.505472 -5.781600 -0.000001 -57.901400
3.112678 16.828008 1.504103 -42.330944 -64.232991 17.371719 -12.813302 1.195151 -1.145199 7.553361 3.061523 18.603843 -0.058779 1.871294 19.733573 1.616004 7.998879 -14.298964 -1.028800 0.000000 -43.924700 9.404893 2.689762 -2.077345 1.454323 -24.890343 -29.217231 1.744987 0.449030 0.760660 -2.795611 -21.444342 6.474922 -5.815501 -0.000000 -57.470900
3.100710 16.829246 1.487861 -41.647805 -64.186601 16.643743 -12.720515 1.302029 -1.019260 7.395691 3.141536 18.574042 -0.097647 1.838417 19.572618 1.567675 7.707036 -14.279927 -1.002500 0.000000 -44.523200 9.570384 2.449319 -2.155515 1.404809 -25.134063 -27.773484 1.721627 0.391649 1.314425 -2.793743 -21.492359 6.490718 -5.817200 0.000000 -56.908200
3.088496 16.829244 1.471062 -40.929879 -64.163681 15.907461 -12.622277 1.406874 -0.894409 7.197126 3.222268 18.508069 -0.140695 1.806139 19.457279 1.523373 7.434788 -14.291053 -0.982700 -0.000000 -45.039800 9.725463 2.216191 -2.238337 1.365659 -25.435024 -26.450718 1.701436 0.325715 1.966200 -2.775614 -21.406563 6.524164 -5.785500 0.000000 -56.317299
3.076719 16.827826 1.454357 -40.221978 -64.179408 15.199600 -12.523792 1.506315 -0.776725 6.968206 3.309767 18.422279 -0.185226 1.775720 19.383874 1.485968 7.200663 -14.329155 -0.970300 -0.000001 -45.449701 9.867746 1.988531 -2.323157 1.341885 -25.753843 -25.221105 1.683513 0.253925 2.696048 -2.746002 -21.216880 6.539900 -5.716600 -0.000000 -55.751800
3.065479 16.825377 1.438109 -39.537587 -64.244243 14.547573 -12.426415 1.600209 -0.664408 6.711818 3.414453 18.293034 -0.230298 1.746100 19.362608 1.455953 7.009892 -14.396388 -0.966001 0.000000 -45.732200 9.995532 1.766645 -2.397412 1.336570 -26.035507 -24.087137 1.663373 0.179650 3.493718 -2.717685 -21.001203 6.520506 -5.630601 0.000000 -55.379600
3.055610 16.821744 1.422949 -38.933764 -64.359855 13.975824 -12.338339 1.685194 -0.565881 6.453829 3.529835 18.172158 -0.271915 1.720327 19.371618 1.435498 6.876907 -14.478671 -0.969001 0.000000 -45.887200 10.106240 1.546182 -2.474520 1.369932 -26.300910 -23.001499 1.644934 0.102554 4.346296 -2.686882 -20.743442 6.431294 -5.508300 -0.000001 -55.145700
3.046802 16.817649 1.408918 -38.404613 -64.527412 13.494417 -12.258494 1.763281 -0.475777 6.195885 3.664306 18.031264 -0.310035 1.696379 19.416443 1.423107 6.794935 -14.575282 -0.978900 -0.000000 -45.912400 10.199507 1.327878 -2.544618 1.445949 -26.522321 -21.978278 1.624002 0.024111 5.255646 -2.664863 -20.514829 6.276484 -5.375400 0.000000 -55.164900
3.039231 16.813207 1.396064 -37.967727 -64.738841 13.103727 -12.189639 1.834891 -0.395043 5.953029 3.813403 17.890937 -0.343325 1.675261 19.484908 1.417825 6.759182 -14.676668 -0.994000 -0.000000 -45.821400 10.275374 1.110422 -2.617865 1.572921 -26.739601 -21.000697 1.602373 -0.057077 6.222460 -2.649732 -20.311800 6.058030 -5.230200 0.000000 -55.410700
